# xmcd
# 
# Track frame offsets:
#     150
#     33925
#     60775
#     78060
#     101717
#     128692
#     153472
#     184740
# 
# Disc length: 2733
# 
# Revision: 4
# Processed by: cddbd v1.5.2PL0 Copyright (c) Steve Scherf et al.
# Submitted via: fre:ac v1.0.31
# 
DISCID=530aab08
DTITLE=Vangelis - Antarctica
DYEAR=1983
DGENRE=Soundtrack
TTITLE0=Theme from Antarctica
TTITLE1=Antarctica Echoes
TTITLE2=Kinematic
TTITLE3=Song of White
TTITLE4=Life of Antarctica
TTITLE5=Memory of Antarctica
TTITLE6=Other Side of Antarctica
TTITLE7=Deliverance
EXTD=
EXTT0=
EXTT1=
EXTT2=
EXTT3=
EXTT4=
EXTT5=
EXTT6=
EXTT7=
PLAYORDER=
